# Blender 4.5.3 LTS
# www.blender.org
mtllib missile.mtl
o Missile
v -0.306811 0.306811 -1.308666
v -0.325709 0.325709 -0.805816
v -0.332090 0.332090 -0.242823
v -0.084649 0.035063 -2.716750
v -0.166045 0.068778 -2.509757
v 0.179726 0.433896 0.696469
v -0.241060 0.099850 -2.270413
v -0.306811 0.127085 -1.996213
v -0.360772 0.149437 -1.681214
v -0.400868 0.166045 -1.308666
v -0.425559 0.176273 -0.805816
v -0.433896 0.179726 -0.242823
v -0.091623 0.000000 -2.716750
v 0.332090 0.332090 0.696469
v -0.179726 0.000000 -2.509757
v -0.260921 0.000000 -2.270413
v -0.332090 0.000000 -1.996213
v -0.390496 0.000000 -1.681214
v -0.433896 0.000000 -1.308666
v -0.460622 0.000000 -0.805816
v -0.469646 0.000000 -0.242823
v 0.433896 0.179726 0.696469
v -0.084649 -0.035063 -2.716750
v -0.166045 -0.068778 -2.509757
v -0.241060 -0.099850 -2.270413
v -0.306811 -0.127085 -1.996213
v -0.360772 -0.149436 -1.681214
v -0.400868 -0.166045 -1.308666
v -0.425559 -0.176272 -0.805816
v 0.469646 -0.000000 0.696469
v -0.433897 -0.179726 -0.242823
v -0.064788 -0.064787 -2.716750
v -0.127085 -0.127085 -2.509757
v -0.184499 -0.184499 -2.270413
v -0.234823 -0.234823 -1.996213
v -0.276123 -0.276123 -1.681214
v -0.306811 -0.306811 -1.308666
v 0.433896 -0.179726 0.696469
v -0.325709 -0.325709 -0.805815
v -0.332090 -0.332090 -0.242823
v 0.000000 0.000000 -2.892724
v -0.035063 -0.084649 -2.716750
v -0.068778 -0.166045 -2.509757
v -0.099850 -0.241060 -2.270413
v -0.127085 -0.306811 -1.996213
v 0.332090 -0.332090 0.696469
v -0.149437 -0.360772 -1.681214
v -0.166045 -0.400868 -1.308666
v -0.176273 -0.425559 -0.805816
v -0.179726 -0.433896 -0.242823
v -0.000000 -0.091623 -2.716750
v -0.000000 -0.179726 -2.509757
v -0.000000 -0.260921 -2.270413
v 0.179726 -0.433897 0.696469
v -0.000000 -0.332090 -1.996213
v -0.000000 -0.390496 -1.681214
v -0.000000 -0.433896 -1.308666
v -0.000000 -0.460622 -0.805815
v -0.000000 -0.469646 -0.242823
v 0.035063 -0.084649 -2.716750
v 0.068778 -0.166045 -2.509757
v -0.000000 -0.469646 0.696469
v 0.099850 -0.241060 -2.270413
v 0.127085 -0.306811 -1.996213
v 0.149436 -0.360772 -1.681214
v 0.166045 -0.400868 -1.308666
v 0.176272 -0.425559 -0.805816
v 0.179726 -0.433897 -0.242823
v 0.064788 -0.064788 -2.716750
v -0.179726 -0.433896 0.696469
v 0.127085 -0.127085 -2.509757
v 0.184499 -0.184499 -2.270413
v 0.234823 -0.234823 -1.996213
v 0.276123 -0.276123 -1.681214
v 0.306811 -0.306811 -1.308666
v 0.325709 -0.325709 -0.805815
v 0.332090 -0.332090 -0.242823
v 0.084649 -0.035063 -2.716750
v -0.332090 -0.332090 0.696469
v 0.166045 -0.068778 -2.509756
v 0.241060 -0.099850 -2.270413
v 0.306811 -0.127085 -1.996213
v 0.360772 -0.149437 -1.681214
v 0.400868 -0.166045 -1.308666
v 0.425559 -0.176272 -0.805815
v 0.433896 -0.179726 -0.242823
v -0.433897 -0.179726 0.696469
v 0.091623 0.000000 -2.716750
v 0.179726 0.000000 -2.509757
v 0.260921 -0.000000 -2.270413
v 0.332090 -0.000000 -1.996213
v 0.390496 -0.000000 -1.681214
v 0.433896 -0.000000 -1.308666
v 0.460622 -0.000000 -0.805815
v -0.469646 0.000000 0.696469
v 0.469646 -0.000000 -0.242823
v 0.084649 0.035063 -2.716750
v 0.166045 0.068778 -2.509757
v 0.241060 0.099850 -2.270413
v 0.306811 0.127085 -1.996213
v 0.360772 0.149437 -1.681214
v 0.400868 0.166045 -1.308665
v -0.433896 0.179726 0.696469
v 0.425559 0.176272 -0.805815
v 0.433896 0.179726 -0.242823
v 0.064788 0.064788 -2.716750
v 0.127085 0.127085 -2.509757
v 0.184499 0.184499 -2.270413
v 0.234823 0.234823 -1.996212
v 0.276123 0.276123 -1.681214
v -0.332090 0.332090 0.696469
v 0.306811 0.306811 -1.308665
v 0.325709 0.325709 -0.805815
v 0.332090 0.332090 -0.242823
v 0.035063 0.084649 -2.716750
v 0.068778 0.166045 -2.509757
v 0.099850 0.241060 -2.270413
v 0.127085 0.306811 -1.996212
v -0.179726 0.433897 0.696469
v 0.149437 0.360772 -1.681214
v 0.166045 0.400868 -1.308665
v 0.176272 0.425559 -0.805815
v 0.179726 0.433896 -0.242823
v 0.000000 0.091623 -2.716750
v 0.000000 0.179726 -2.509757
v 0.000000 0.260921 -2.270413
v 0.000000 0.469646 0.696469
v 0.000000 0.390496 -1.681214
v 0.000000 0.460622 -0.805815
v -0.276122 0.276123 -1.681214
v -0.234823 0.234823 -1.996213
v -0.184499 0.184499 -2.270413
v -0.127085 0.127085 -2.509757
v -0.064787 0.064788 -2.716750
v -0.179726 0.433897 -0.242823
v -0.176272 0.425559 -0.805816
v -0.166045 0.400868 -1.308666
v -0.149436 0.360772 -1.681214
v -0.127085 0.306811 -1.996213
v -0.099850 0.241060 -2.270413
v -0.068778 0.166045 -2.509757
v -0.035063 0.084649 -2.716750
v 0.000000 0.469646 -0.242823
v 0.000000 0.433896 -1.308666
v 0.000000 0.332090 -1.996213
v 0.179726 0.433896 3.998558
v 0.000000 0.469646 3.998558
v -0.179726 0.433897 3.998558
v -0.332090 0.332090 3.998558
v -0.433896 0.179726 3.998558
v -0.469646 0.000000 3.998558
v -0.433897 -0.179726 3.998558
v -0.332090 -0.332090 3.998558
v -0.179726 -0.433896 3.998558
v -0.000000 -0.469646 3.998558
v 0.179726 -0.433897 3.998558
v 0.332090 -0.332090 3.998558
v 0.433896 -0.179726 3.998558
v 0.469646 -0.000000 3.998558
v 0.433896 0.179726 3.998558
v 0.332090 0.332090 3.998558
v 0.000000 0.469646 3.252094
v 0.433896 -0.179726 3.252094
v 0.179726 0.433896 3.252094
v 0.332090 -0.332090 3.252094
v -0.332090 0.332090 3.252094
v -0.179726 0.433897 3.252094
v 0.179726 -0.433897 3.252094
v 0.332090 0.332090 3.252094
v -0.332090 -0.332090 3.252094
v -0.000000 -0.469646 3.252094
v -0.179726 -0.433896 3.252094
v -0.433897 -0.179726 3.252094
v -0.469646 0.000000 3.252094
v -0.433896 0.179726 3.252094
v 0.433896 0.179726 3.252094
v 0.469646 -0.000000 3.252094
v 0.131292 0.771477 3.480501
v 0.131292 0.771477 3.998558
v 0.762995 -0.173934 3.480501
v 0.762995 -0.173934 3.998558
v 0.173934 0.762995 3.480501
v 0.173934 0.762995 3.998558
v -0.131292 -0.771477 3.480501
v -0.131292 -0.771477 3.998558
v -0.771477 0.131292 3.480501
v -0.771477 0.131292 3.998558
v -0.762995 0.173934 3.998558
v -0.173934 -0.762995 3.998558
v 0.771477 -0.131292 3.998558
v -0.173934 -0.762995 3.480501
v -0.762995 0.173934 3.480501
v 0.771477 -0.131292 3.480501
v 0.000000 0.385264 3.998558
v 0.147434 0.355938 3.998558
v -0.147434 0.355938 3.998558
v -0.272423 0.272423 3.998558
v -0.355938 0.147435 3.998558
v -0.385264 0.000000 3.998558
v -0.355938 -0.147434 3.998558
v -0.272423 -0.272423 3.998558
v -0.147434 -0.355938 3.998558
v -0.000000 -0.385264 3.998558
v 0.147434 -0.355938 3.998558
v 0.272423 -0.272423 3.998558
v 0.355938 -0.147434 3.998558
v 0.385264 -0.000000 3.998558
v 0.355938 0.147434 3.998558
v 0.272423 0.272423 3.998558
v 0.000000 0.385264 3.828953
v 0.000000 0.000000 3.828953
v -0.147434 0.355938 3.828953
v -0.272423 0.272423 3.828953
v -0.355938 0.147435 3.828953
v -0.385264 0.000000 3.828953
v -0.355938 -0.147434 3.828953
v -0.272423 -0.272423 3.828953
v -0.147434 -0.355938 3.828953
v -0.000000 -0.385264 3.828953
v 0.147434 -0.355938 3.828953
v 0.272423 -0.272423 3.828953
v 0.355938 -0.147434 3.828953
v 0.385264 -0.000000 3.828953
v 0.355938 0.147434 3.828953
v 0.272423 0.272423 3.828953
v 0.147434 0.355938 3.828953
vn -0.3668 0.8855 -0.2852
vn -0.3737 0.9021 -0.2160
vn -0.0000 0.9764 -0.2160
vn -0.0000 0.9585 -0.2852
vn -0.3784 0.9136 -0.1485
vn -0.0000 0.9889 -0.1485
vn -0.3813 0.9206 -0.0841
vn -0.0000 0.9965 -0.0841
vn -0.3825 0.9233 -0.0345
vn -0.0000 0.9994 -0.0345
vn -0.3827 0.9239 -0.0080
vn -0.0000 1.0000 -0.0080
vn -0.0000 -0.0000 -1.0000
vn -0.3464 0.8362 -0.4252
vn -0.0000 0.9051 -0.4252
vn -0.3577 0.8637 -0.3551
vn -0.0000 0.9348 -0.3551
vn -0.7067 0.7067 -0.0345
vn -0.7071 0.7071 -0.0080
vn -0.6400 0.6400 -0.4252
vn -0.6610 0.6610 -0.3551
vn -0.6777 0.6777 -0.2852
vn -0.6904 0.6904 -0.2160
vn -0.6993 0.6993 -0.1485
vn -0.7046 0.7046 -0.0841
vn -0.9021 0.3737 -0.2160
vn -0.9136 0.3784 -0.1485
vn -0.9206 0.3813 -0.0841
vn -0.9233 0.3825 -0.0345
vn -0.9238 0.3827 -0.0080
vn -0.8362 0.3464 -0.4252
vn -0.8637 0.3577 -0.3551
vn -0.8855 0.3668 -0.2852
vn -0.9051 -0.0000 -0.4252
vn -0.9348 -0.0000 -0.3551
vn -0.9585 -0.0000 -0.2852
vn -0.9764 -0.0000 -0.2160
vn -0.9889 -0.0000 -0.1485
vn -0.9965 -0.0000 -0.0841
vn -0.9994 -0.0000 -0.0345
vn -1.0000 -0.0000 -0.0080
vn -0.9136 -0.3784 -0.1485
vn -0.9206 -0.3813 -0.0841
vn -0.9233 -0.3825 -0.0345
vn -0.9239 -0.3827 -0.0080
vn -0.8362 -0.3464 -0.4252
vn -0.8637 -0.3577 -0.3551
vn -0.8855 -0.3668 -0.2852
vn -0.9021 -0.3737 -0.2160
vn -0.6400 -0.6400 -0.4252
vn -0.6610 -0.6610 -0.3551
vn -0.6777 -0.6777 -0.2852
vn -0.6904 -0.6904 -0.2160
vn -0.6993 -0.6993 -0.1485
vn -0.7046 -0.7046 -0.0841
vn -0.7067 -0.7067 -0.0345
vn -0.7071 -0.7071 -0.0080
vn -0.3784 -0.9136 -0.1485
vn -0.3813 -0.9206 -0.0841
vn -0.3825 -0.9233 -0.0345
vn -0.3827 -0.9238 -0.0080
vn -0.3464 -0.8362 -0.4252
vn -0.3577 -0.8637 -0.3551
vn -0.3668 -0.8855 -0.2852
vn -0.3737 -0.9021 -0.2160
vn -0.0000 -0.9348 -0.3551
vn -0.0000 -0.9585 -0.2852
vn -0.0000 -0.9764 -0.2160
vn -0.0000 -0.9889 -0.1485
vn -0.0000 -0.9965 -0.0841
vn -0.0000 -0.9994 -0.0345
vn -0.0000 -1.0000 -0.0080
vn -0.0000 -0.9051 -0.4252
vn 0.3813 -0.9206 -0.0841
vn 0.3825 -0.9233 -0.0345
vn 0.3827 -0.9239 -0.0080
vn 0.3464 -0.8362 -0.4252
vn 0.3577 -0.8637 -0.3551
vn 0.3668 -0.8855 -0.2852
vn 0.3737 -0.9021 -0.2160
vn 0.3784 -0.9136 -0.1485
vn 0.6610 -0.6610 -0.3551
vn 0.6777 -0.6777 -0.2852
vn 0.6904 -0.6904 -0.2160
vn 0.6993 -0.6993 -0.1485
vn 0.7046 -0.7046 -0.0841
vn 0.7067 -0.7067 -0.0345
vn 0.7071 -0.7071 -0.0080
vn 0.6400 -0.6400 -0.4252
vn 0.9206 -0.3813 -0.0841
vn 0.9233 -0.3825 -0.0345
vn 0.9238 -0.3827 -0.0080
vn 0.8362 -0.3464 -0.4252
vn 0.8637 -0.3577 -0.3551
vn 0.8855 -0.3668 -0.2852
vn 0.9021 -0.3737 -0.2160
vn 0.9136 -0.3784 -0.1485
vn 0.9585 -0.0000 -0.2852
vn 0.9764 -0.0000 -0.2160
vn 0.9889 -0.0000 -0.1485
vn 0.9965 -0.0000 -0.0841
vn 0.9994 -0.0000 -0.0345
vn 1.0000 -0.0000 -0.0080
vn 0.9051 -0.0000 -0.4252
vn 0.9348 -0.0000 -0.3551
vn 0.9233 0.3825 -0.0345
vn 0.9239 0.3827 -0.0080
vn 0.8362 0.3464 -0.4252
vn 0.8637 0.3577 -0.3551
vn 0.8855 0.3668 -0.2852
vn 0.9021 0.3737 -0.2160
vn 0.9136 0.3784 -0.1485
vn 0.9206 0.3813 -0.0841
vn 0.6904 0.6904 -0.2160
vn 0.6993 0.6993 -0.1485
vn 0.7046 0.7046 -0.0841
vn 0.7067 0.7067 -0.0345
vn 0.7071 0.7071 -0.0080
vn 0.6400 0.6400 -0.4252
vn 0.6610 0.6610 -0.3551
vn 0.6777 0.6777 -0.2852
vn 0.1130 0.5679 -0.8153
vn 0.3464 0.8362 -0.4252
vn -0.9239 -0.3827 -0.0000
vn -0.7071 -0.7071 -0.0000
vn 0.3577 0.8637 -0.3551
vn -0.0662 0.9978 -0.0000
vn -0.3827 0.9239 -0.0000
vn -0.1951 0.9808 -0.0000
vn 0.3668 0.8855 -0.2852
vn -0.0176 0.9998 -0.0000
vn 0.3737 0.9021 -0.2160
vn 0.7071 -0.7071 -0.0000
vn 0.8965 -0.4430 -0.0000
vn 0.8315 -0.5556 -0.0000
vn 0.3784 0.9136 -0.1485
vn -0.7071 0.7071 -0.0000
vn -0.8965 0.4430 -0.0000
vn -0.8315 0.5556 -0.0000
vn 0.3813 0.9206 -0.0841
vn 0.7071 0.7071 -0.0000
vn 0.4430 0.8965 -0.0000
vn 0.5556 0.8315 -0.0000
vn 0.3827 -0.9239 -0.0000
vn 0.3825 0.9233 -0.0345
vn 0.3827 0.9238 -0.0080
vn 0.0662 -0.9978 -0.0000
vn 0.1951 -0.9808 -0.0000
vn 0.9239 0.3827 -0.0000
vn -0.4430 -0.8965 -0.0000
vn -0.5556 -0.8315 -0.0000
vn 0.0176 -0.9998 -0.0000
vn -0.9978 -0.0662 -0.0000
vn -0.9808 -0.1951 -0.0000
vn 0.9170 -0.3989 -0.0000
vn 0.9978 0.0662 -0.0000
vn 0.9808 0.1951 -0.0000
vn 0.3827 0.9239 -0.0000
vn -0.0000 1.0000 -0.0000
vn -0.9239 0.3827 -0.0000
vn -1.0000 -0.0000 -0.0000
vn -0.3827 -0.9239 -0.0000
vn -0.0000 -1.0000 -0.0000
vn 0.9239 -0.3827 -0.0000
vn 1.0000 -0.0000 -0.0000
vn -0.0000 -0.0000 1.0000
vn 0.9808 -0.1951 -0.0000
vn 0.1951 0.9808 -0.0000
vn -0.1951 -0.9808 -0.0000
vn -0.9808 0.1951 -0.0000
vn -0.3989 -0.9170 -0.0000
vn 0.9998 0.0176 -0.0000
vn 0.3989 0.9170 -0.0000
vn 0.5679 -0.1130 -0.8153
vn -0.5679 0.1130 -0.8153
vn -0.9998 -0.0176 -0.0000
vn -0.9170 0.3989 -0.0000
vn -0.1130 -0.5679 -0.8153
vt 0.812500 0.187500
vt 0.812500 0.250000
vt 0.750000 0.250000
vt 0.750000 0.187500
vt 0.812500 0.312500
vt 0.750000 0.312500
vt 0.812500 0.375000
vt 0.750000 0.375000
vt 0.812500 0.437500
vt 0.750000 0.437500
vt 0.812500 0.500000
vt 0.750000 0.500000
vt 0.781250 0.000000
vt 0.812500 0.062500
vt 0.750000 0.062500
vt 0.812500 0.125000
vt 0.750000 0.125000
vt 0.875000 0.437500
vt 0.875000 0.500000
vt 0.843750 0.000000
vt 0.875000 0.062500
vt 0.875000 0.125000
vt 0.875000 0.187500
vt 0.875000 0.250000
vt 0.875000 0.312500
vt 0.875000 0.375000
vt 0.937500 0.250000
vt 0.937500 0.312500
vt 0.937500 0.375000
vt 0.937500 0.437500
vt 0.937500 0.500000
vt 0.906250 0.000000
vt 0.937500 0.062500
vt 0.937500 0.125000
vt 0.937500 0.187500
vt 1.000000 0.062500
vt 1.000000 0.125000
vt 1.000000 0.187500
vt 1.000000 0.250000
vt 1.000000 0.312500
vt 1.000000 0.375000
vt 1.000000 0.437500
vt 1.000000 0.500000
vt 0.968750 0.000000
vt 0.062500 0.312500
vt 0.062500 0.375000
vt 0.000000 0.375000
vt 0.000000 0.312500
vt 0.062500 0.437500
vt 0.000000 0.437500
vt 0.062500 0.500000
vt 0.000000 0.500000
vt 0.031250 0.000000
vt 0.062500 0.062500
vt 0.000000 0.062500
vt 0.062500 0.125000
vt 0.000000 0.125000
vt 0.062500 0.187500
vt 0.000000 0.187500
vt 0.062500 0.250000
vt 0.000000 0.250000
vt 0.125000 0.062500
vt 0.125000 0.125000
vt 0.125000 0.187500
vt 0.125000 0.250000
vt 0.125000 0.312500
vt 0.125000 0.375000
vt 0.125000 0.437500
vt 0.125000 0.500000
vt 0.093750 0.000000
vt 0.187500 0.312500
vt 0.187500 0.375000
vt 0.187500 0.437500
vt 0.187500 0.500000
vt 0.156250 0.000000
vt 0.187500 0.062500
vt 0.187500 0.125000
vt 0.187500 0.187500
vt 0.187500 0.250000
vt 0.250000 0.125000
vt 0.250000 0.187500
vt 0.250000 0.250000
vt 0.250000 0.312500
vt 0.250000 0.375000
vt 0.250000 0.437500
vt 0.250000 0.500000
vt 0.218750 0.000000
vt 0.250000 0.062500
vt 0.312500 0.375000
vt 0.312500 0.437500
vt 0.312500 0.500000
vt 0.281250 0.000000
vt 0.312500 0.062500
vt 0.312500 0.125000
vt 0.312500 0.187500
vt 0.312500 0.250000
vt 0.312500 0.312500
vt 0.375000 0.125000
vt 0.375000 0.187500
vt 0.375000 0.250000
vt 0.375000 0.312500
vt 0.375000 0.375000
vt 0.375000 0.437500
vt 0.375000 0.500000
vt 0.343750 0.000000
vt 0.375000 0.062500
vt 0.437500 0.375000
vt 0.437500 0.437500
vt 0.437500 0.500000
vt 0.406250 0.000000
vt 0.437500 0.062500
vt 0.437500 0.125000
vt 0.437500 0.187500
vt 0.437500 0.250000
vt 0.437500 0.312500
vt 0.500000 0.187500
vt 0.500000 0.250000
vt 0.500000 0.312500
vt 0.500000 0.375000
vt 0.500000 0.437500
vt 0.500000 0.500000
vt 0.468750 0.000000
vt 0.500000 0.062500
vt 0.500000 0.125000
vt 0.562500 0.437500
vt 0.562500 0.500000
vt 0.531250 0.000000
vt 0.562500 0.062500
vt 0.562500 0.125000
vt 0.562500 0.187500
vt 0.562500 0.250000
vt 0.562500 0.312500
vt 0.562500 0.375000
vt 0.625000 0.250000
vt 0.625000 0.312500
vt 0.625000 0.375000
vt 0.625000 0.437500
vt 0.625000 0.500000
vt 0.593750 0.000000
vt 0.625000 0.062500
vt 0.625000 0.125000
vt 0.625000 0.187500
vt 0.000000 0.000000
vt 0.656250 0.000000
vt 0.687500 0.062500
vt 0.687500 0.125000
vt 0.687500 0.187500
vt 0.687500 0.250000
vt 0.687500 0.312500
vt 0.687500 0.375000
vt 0.687500 0.437500
vt 0.687500 0.500000
vt 0.718750 0.000000
vt 0.024385 0.021676
vt 0.016177 0.014380
vt 0.011806 0.010495
vt 0.009473 0.008420
vt 0.008207 0.007295
vt 0.007570 0.006729
vt 0.007375 0.006556
vt 0.007570 0.006729
vt 0.008207 0.007295
vt 0.009473 0.008420
vt 0.011806 0.010495
vt 0.016177 0.014379
vt 0.024385 0.021676
vt 0.036977 0.032868
vt 0.318227 0.282868
vt 0.325935 0.289720
vt 0.044685 0.039720
vt 0.036977 0.032868
vt 0.073954 0.065737
vt 0.089370 0.079440
vt 0.073954 0.065737
vt 0.048771 0.043352
vt 0.032354 0.028759
vt 0.023613 0.020989
vt 0.018945 0.016840
vt 0.016414 0.014590
vt 0.015140 0.013458
vt 0.014750 0.013111
vt 0.015140 0.013458
vt 0.016414 0.014590
vt 0.018945 0.016840
vt 0.023613 0.020989
vt 0.032354 0.028759
vt 0.048771 0.043352
s 1
f 140/1/1 139/2/2 145/3/3 126/4/4
f 139/2/2 138/5/5 128/6/6 145/3/3
f 138/5/5 137/7/7 144/8/8 128/6/6
f 137/7/7 136/9/9 129/10/10 144/8/8
f 136/9/9 135/11/11 143/12/12 129/10/10
f 41/13/13 142/14/14 124/15/15
f 142/14/14 141/16/16 125/17/17 124/15/15
f 141/16/16 140/1/1 126/4/4 125/17/17
f 2/18/18 3/19/19 135/11/11 136/9/9
f 41/20/13 134/21/20 142/14/14
f 134/21/20 133/22/21 141/16/16 142/14/14
f 133/22/21 132/23/22 140/1/1 141/16/16
f 132/23/22 131/24/23 139/2/2 140/1/1
f 131/24/23 130/25/24 138/5/5 139/2/2
f 130/25/24 1/26/25 137/7/7 138/5/5
f 1/26/25 2/18/18 136/9/9 137/7/7
f 8/27/26 9/28/27 130/25/24 131/24/23
f 9/28/27 10/29/28 1/26/25 130/25/24
f 10/29/28 11/30/29 2/18/18 1/26/25
f 11/30/29 12/31/30 3/19/19 2/18/18
f 41/32/13 4/33/31 134/21/20
f 4/33/31 5/34/32 133/22/21 134/21/20
f 5/34/32 7/35/33 132/23/22 133/22/21
f 7/35/33 8/27/26 131/24/23 132/23/22
f 13/36/34 15/37/35 5/34/32 4/33/31
f 15/37/35 16/38/36 7/35/33 5/34/32
f 16/38/36 17/39/37 8/27/26 7/35/33
f 17/39/37 18/40/38 9/28/27 8/27/26
f 18/40/38 19/41/39 10/29/28 9/28/27
f 19/41/39 20/42/40 11/30/29 10/29/28
f 20/42/40 21/43/41 12/31/30 11/30/29
f 41/44/13 13/36/34 4/33/31
f 27/45/42 28/46/43 19/47/39 18/48/38
f 28/46/43 29/49/44 20/50/40 19/47/39
f 29/49/44 31/51/45 21/52/41 20/50/40
f 41/53/13 23/54/46 13/55/34
f 23/54/46 24/56/47 15/57/35 13/55/34
f 24/56/47 25/58/48 16/59/36 15/57/35
f 25/58/48 26/60/49 17/61/37 16/59/36
f 26/60/49 27/45/42 18/48/38 17/61/37
f 32/62/50 33/63/51 24/56/47 23/54/46
f 33/63/51 34/64/52 25/58/48 24/56/47
f 34/64/52 35/65/53 26/60/49 25/58/48
f 35/65/53 36/66/54 27/45/42 26/60/49
f 36/66/54 37/67/55 28/46/43 27/45/42
f 37/67/55 39/68/56 29/49/44 28/46/43
f 39/68/56 40/69/57 31/51/45 29/49/44
f 41/70/13 32/62/50 23/54/46
f 47/71/58 48/72/59 37/67/55 36/66/54
f 48/72/59 49/73/60 39/68/56 37/67/55
f 49/73/60 50/74/61 40/69/57 39/68/56
f 41/75/13 42/76/62 32/62/50
f 42/76/62 43/77/63 33/63/51 32/62/50
f 43/77/63 44/78/64 34/64/52 33/63/51
f 44/78/64 45/79/65 35/65/53 34/64/52
f 45/79/65 47/71/58 36/66/54 35/65/53
f 52/80/66 53/81/67 44/78/64 43/77/63
f 53/81/67 55/82/68 45/79/65 44/78/64
f 55/82/68 56/83/69 47/71/58 45/79/65
f 56/83/69 57/84/70 48/72/59 47/71/58
f 57/84/70 58/85/71 49/73/60 48/72/59
f 58/85/71 59/86/72 50/74/61 49/73/60
f 41/87/13 51/88/73 42/76/62
f 51/88/73 52/80/66 43/77/63 42/76/62
f 66/89/74 67/90/75 58/85/71 57/84/70
f 67/90/75 68/91/76 59/86/72 58/85/71
f 41/92/13 60/93/77 51/88/73
f 60/93/77 61/94/78 52/80/66 51/88/73
f 61/94/78 63/95/79 53/81/67 52/80/66
f 63/95/79 64/96/80 55/82/68 53/81/67
f 64/96/80 65/97/81 56/83/69 55/82/68
f 65/97/81 66/89/74 57/84/70 56/83/69
f 71/98/82 72/99/83 63/95/79 61/94/78
f 72/99/83 73/100/84 64/96/80 63/95/79
f 73/100/84 74/101/85 65/97/81 64/96/80
f 74/101/85 75/102/86 66/89/74 65/97/81
f 75/102/86 76/103/87 67/90/75 66/89/74
f 76/103/87 77/104/88 68/91/76 67/90/75
f 41/105/13 69/106/89 60/93/77
f 69/106/89 71/98/82 61/94/78 60/93/77
f 84/107/90 85/108/91 76/103/87 75/102/86
f 85/108/91 86/109/92 77/104/88 76/103/87
f 41/110/13 78/111/93 69/106/89
f 78/111/93 80/112/94 71/98/82 69/106/89
f 80/112/94 81/113/95 72/99/83 71/98/82
f 81/113/95 82/114/96 73/100/84 72/99/83
f 82/114/96 83/115/97 74/101/85 73/100/84
f 83/115/97 84/107/90 75/102/86 74/101/85
f 90/116/98 91/117/99 82/114/96 81/113/95
f 91/117/99 92/118/100 83/115/97 82/114/96
f 92/118/100 93/119/101 84/107/90 83/115/97
f 93/119/101 94/120/102 85/108/91 84/107/90
f 94/120/102 96/121/103 86/109/92 85/108/91
f 41/122/13 88/123/104 78/111/93
f 88/123/104 89/124/105 80/112/94 78/111/93
f 89/124/105 90/116/98 81/113/95 80/112/94
f 104/125/106 105/126/107 96/121/103 94/120/102
f 41/127/13 97/128/108 88/123/104
f 97/128/108 98/129/109 89/124/105 88/123/104
f 98/129/109 99/130/110 90/116/98 89/124/105
f 99/130/110 100/131/111 91/117/99 90/116/98
f 100/131/111 101/132/112 92/118/100 91/117/99
f 101/132/112 102/133/113 93/119/101 92/118/100
f 102/133/113 104/125/106 94/120/102 93/119/101
f 109/134/114 110/135/115 101/132/112 100/131/111
f 110/135/115 112/136/116 102/133/113 101/132/112
f 112/136/116 113/137/117 104/125/106 102/133/113
f 113/137/117 114/138/118 105/126/107 104/125/106
f 41/139/13 106/140/119 97/128/108
f 106/140/119 107/141/120 98/129/109 97/128/108
f 107/141/120 108/142/121 99/130/110 98/129/109
f 108/142/121 109/134/114 100/131/111 99/130/110
f 164/143/122 162/143/122 178/143/122 182/143/122
f 41/144/13 115/145/123 106/140/119
f 173/143/124 170/143/125 153/143/125 152/143/124
f 115/145/123 116/146/126 107/141/120 106/140/119
f 162/143/127 167/143/128 148/143/128 147/143/129
f 116/146/126 117/147/130 108/142/121 107/141/120
f 150/143/131 175/143/131 192/143/131 188/143/131
f 117/147/130 118/148/132 109/134/114 108/142/121
f 165/143/133 163/143/134 158/143/135 157/143/133
f 118/148/132 120/149/136 110/135/115 109/134/114
f 166/143/137 175/143/138 150/143/139 149/143/137
f 120/149/136 121/150/140 112/136/116 110/135/115
f 169/143/141 164/143/142 146/143/143 161/143/141
f 168/143/144 165/143/133 157/143/133 156/143/144
f 121/150/140 122/151/145 113/137/117 112/136/116
f 122/151/145 123/152/146 114/138/118 113/137/117
f 167/143/128 166/143/137 149/143/137 148/143/128
f 144/8/8 129/10/10 122/151/145 121/150/140
f 171/143/147 168/143/144 156/143/144 155/143/148
f 129/10/10 143/12/12 123/152/146 122/151/145
f 176/126/149 169/138/141 161/138/141 160/126/149
f 170/143/125 172/143/150 154/143/151 153/143/125
f 41/153/13 124/15/15 115/145/123
f 124/15/15 125/17/17 116/146/126 115/145/123
f 158/143/152 163/143/152 180/143/152 181/143/152
f 125/17/17 126/4/4 117/147/130 116/146/126
f 174/143/153 173/143/124 152/143/124 151/143/154
f 126/4/4 145/3/3 118/148/132 117/147/130
f 171/143/155 155/143/155 185/143/155 184/143/155
f 145/3/3 128/6/6 120/149/136 118/148/132
f 177/143/156 176/143/149 160/143/149 159/143/157
f 128/6/6 144/8/8 121/150/140 120/149/136
f 14/138/141 22/126/149 105/126/107 114/138/118
f 6/143/158 14/143/141 114/143/118 123/143/146
f 127/143/159 6/143/158 123/143/146 143/143/12
f 119/143/128 127/143/159 143/143/12 135/143/11
f 111/143/137 119/143/128 135/143/11 3/143/19
f 103/143/160 111/143/137 3/143/19 12/143/30
f 95/143/161 103/143/160 12/143/30 21/143/41
f 87/143/124 95/143/161 21/143/41 31/143/45
f 79/143/125 87/143/124 31/143/45 40/143/57
f 70/143/162 79/143/125 40/143/57 50/143/61
f 62/143/163 70/143/162 50/143/61 59/143/72
f 54/143/144 62/143/163 59/143/72 68/143/76
f 46/143/133 54/143/144 68/143/76 77/143/88
f 38/143/164 46/143/133 77/143/88 86/143/92
f 30/143/165 38/143/164 86/143/92 96/143/103
f 22/143/149 30/143/165 96/143/103 105/143/107
f 195/154/166 146/143/166 147/143/166 194/154/166
f 194/155/166 147/143/166 148/143/166 196/155/166
f 196/156/166 148/143/166 149/143/166 197/156/166
f 197/157/166 149/143/166 150/143/166 198/157/166
f 198/158/166 150/143/166 151/143/166 199/158/166
f 199/159/166 151/143/166 152/143/166 200/159/166
f 200/160/166 152/143/166 153/143/166 201/160/166
f 201/161/166 153/143/166 154/143/166 202/161/166
f 202/162/166 154/143/166 155/143/166 203/162/166
f 203/163/166 155/143/166 156/143/166 204/163/166
f 204/164/166 156/143/166 157/143/166 205/164/166
f 205/165/166 157/143/166 158/143/166 206/165/166
f 206/166/166 158/143/166 159/143/166 207/166/166
f 207/167/166 159/143/166 160/126/166 208/168/166
f 208/169/166 160/126/166 161/143/166 209/170/166
f 209/171/166 161/143/166 146/143/166 195/171/166
f 30/143/165 22/143/149 176/143/149 177/143/156
f 103/143/160 95/143/161 174/143/153 175/143/138
f 95/143/161 87/143/124 173/143/124 174/143/153
f 70/143/162 62/143/163 171/143/147 172/143/150
f 79/143/125 70/143/162 172/143/150 170/143/125
f 22/126/149 14/138/141 169/138/141 176/126/149
f 62/143/163 54/143/144 168/143/144 171/143/147
f 119/143/128 111/143/137 166/143/137 167/143/128
f 54/143/144 46/143/133 165/143/133 168/143/144
f 14/143/141 6/143/158 164/143/142 169/143/141
f 111/143/137 103/143/160 175/143/138 166/143/137
f 46/143/133 38/143/164 163/143/134 165/143/133
f 6/143/158 127/143/159 162/143/127 164/143/142
f 127/143/159 119/143/128 167/143/128 162/143/127
f 87/143/124 79/143/125 170/143/125 173/143/124
f 38/143/164 30/143/165 177/143/156 163/143/134
f 180/143/167 193/143/167 190/143/167 181/143/167
f 182/143/168 178/143/168 179/143/168 183/143/168
f 191/143/169 184/143/169 185/143/169 189/143/169
f 192/143/170 186/143/170 187/143/170 188/143/170
f 174/143/171 151/143/171 187/143/171 186/143/171
f 146/143/172 164/143/172 182/143/172 183/143/172
f 177/143/173 159/143/173 190/143/173 193/143/173
f 163/143/174 177/143/174 193/143/174 180/143/174
f 147/143/166 146/143/166 183/143/166 179/143/166
f 151/143/166 150/143/166 188/143/166 187/143/166
f 175/143/175 174/143/175 186/143/175 192/143/175
f 154/143/176 172/143/176 191/143/176 189/143/176
f 155/143/166 154/143/166 189/143/166 185/143/166
f 162/143/177 147/143/177 179/143/177 178/143/177
f 172/143/178 171/143/178 184/143/178 191/143/178
f 159/143/166 158/143/166 181/143/166 190/143/166
f 195/154/162 194/154/163 210/154/163 226/154/162
f 209/171/125 195/171/162 226/171/162 225/171/125
f 202/162/158 203/162/159 219/162/159 218/162/158
f 194/155/163 196/155/144 212/155/144 210/155/163
f 203/163/159 204/163/128 220/163/128 219/163/159
f 196/156/144 197/156/133 213/156/133 212/156/144
f 204/164/128 205/164/137 221/164/137 220/164/128
f 197/157/133 198/157/164 214/157/164 213/157/133
f 205/165/137 206/165/160 222/165/160 221/165/137
f 198/158/164 199/158/165 215/158/165 214/158/164
f 206/166/160 207/166/161 223/166/161 222/166/160
f 199/159/165 200/159/149 216/159/149 215/159/165
f 207/167/161 208/168/124 224/168/124 223/167/161
f 200/160/149 201/160/141 217/160/141 216/160/149
f 208/169/124 209/170/125 225/170/125 224/169/124
f 201/161/141 202/161/158 218/161/158 217/161/141
f 211/172/166 225/171/166 226/171/166
f 211/173/166 224/169/166 225/170/166
f 211/174/166 223/167/166 224/168/166
f 211/175/166 222/166/166 223/166/166
f 211/176/166 221/165/166 222/165/166
f 211/177/166 220/164/166 221/164/166
f 211/178/166 219/163/166 220/163/166
f 211/179/166 218/162/166 219/162/166
f 211/180/166 217/161/166 218/161/166
f 211/181/166 216/160/166 217/160/166
f 211/182/166 215/159/166 216/159/166
f 211/183/166 214/158/166 215/158/166
f 211/184/166 213/157/166 214/157/166
f 211/185/166 212/156/166 213/156/166
f 211/186/166 210/155/166 212/155/166
f 211/187/166 226/154/166 210/154/166
