# Blender 4.5.3 LTS
# www.blender.org
mtllib shot.mtl
o Shot
v 0.000000 0.031465 0.319467
v 0.000000 0.061720 0.310290
v 0.000000 0.114044 0.275328
v 0.000000 0.149006 0.223004
v 0.000000 0.158184 0.192748
v -0.105363 0.105363 -0.223004
v -0.111853 0.111853 -0.192748
v -0.114044 0.114045 -0.161283
v -0.029070 0.012041 -0.319468
v -0.057022 0.023619 -0.310290
v 0.012041 0.029070 0.319467
v 0.023619 0.057022 0.310290
v 0.034290 0.082783 0.295385
v 0.043643 0.105363 0.275328
v 0.051319 0.123894 0.250887
v 0.057022 0.137664 0.223004
v 0.060535 0.146143 0.192748
v 0.061720 0.149006 0.161283
v -0.082783 0.034290 -0.295385
v -0.105363 0.043643 -0.275328
v -0.123894 0.051319 -0.250888
v -0.137664 0.057022 -0.223004
v -0.146143 0.060535 -0.192748
v -0.149006 0.061721 -0.161283
v -0.031465 0.000000 -0.319468
v 0.022249 0.022249 0.319467
v 0.043643 0.043643 0.310290
v 0.063360 0.063360 0.295385
v 0.080642 0.080642 0.275328
v 0.094825 0.094825 0.250887
v 0.105363 0.105363 0.223004
v 0.111853 0.111853 0.192748
v 0.114044 0.114044 0.161283
v -0.061720 0.000000 -0.310290
v -0.089604 0.000000 -0.295385
v -0.114044 0.000000 -0.275328
v -0.134102 0.000000 -0.250888
v -0.149006 0.000000 -0.223004
v -0.158184 0.000000 -0.192748
v -0.161283 0.000000 -0.161283
v 0.029070 0.012041 0.319467
v 0.057022 0.023619 0.310290
v 0.082783 0.034290 0.295385
v 0.105363 0.043643 0.275328
v 0.123894 0.051319 0.250887
v 0.137664 0.057022 0.223004
v 0.146143 0.060535 0.192748
v 0.149006 0.061720 0.161283
v -0.029070 -0.012041 -0.319468
v -0.057022 -0.023619 -0.310290
v -0.082783 -0.034290 -0.295385
v -0.105363 -0.043643 -0.275328
v -0.123894 -0.051319 -0.250888
v -0.137664 -0.057022 -0.223004
v -0.146143 -0.060534 -0.192748
v 0.031465 0.000000 0.319467
v 0.061720 0.000000 0.310290
v 0.089604 0.000000 0.295385
v 0.114044 0.000000 0.275328
v 0.134102 0.000000 0.250887
v 0.149006 -0.000000 0.223004
v 0.158184 -0.000000 0.192748
v 0.161283 -0.000000 0.161283
v -0.149006 -0.061720 -0.161283
v -0.022249 -0.022249 -0.319468
v -0.043643 -0.043643 -0.310290
v -0.063360 -0.063360 -0.295385
v -0.080642 -0.080642 -0.275328
v -0.094825 -0.094824 -0.250888
v -0.105363 -0.105363 -0.223004
v 0.029070 -0.012041 0.319467
v 0.057022 -0.023619 0.310290
v 0.082783 -0.034290 0.295385
v 0.105363 -0.043643 0.275328
v 0.123894 -0.051319 0.250887
v 0.137664 -0.057022 0.223004
v 0.146143 -0.060535 0.192748
v 0.149006 -0.061720 0.161283
v -0.111853 -0.111853 -0.192748
v -0.114045 -0.114044 -0.161283
v 0.000000 0.000000 -0.322567
v -0.012041 -0.029070 -0.319468
v -0.023619 -0.057022 -0.310290
v -0.034290 -0.082783 -0.295386
v -0.043643 -0.105363 -0.275328
v 0.022249 -0.022249 0.319467
v 0.043643 -0.043643 0.310290
v 0.063360 -0.063360 0.295385
v 0.080642 -0.080642 0.275328
v 0.094824 -0.094825 0.250887
v 0.105363 -0.105363 0.223004
v 0.111853 -0.111853 0.192748
v 0.114044 -0.114044 0.161283
v -0.051319 -0.123894 -0.250888
v -0.057022 -0.137664 -0.223004
v -0.060535 -0.146143 -0.192748
v -0.061720 -0.149006 -0.161283
v 0.000000 -0.031465 -0.319468
v -0.000000 -0.061720 -0.310290
v -0.000000 -0.089604 -0.295385
v 0.012041 -0.029070 0.319467
v 0.023619 -0.057022 0.310290
v 0.034290 -0.082783 0.295385
v 0.043643 -0.105363 0.275328
v 0.051319 -0.123894 0.250887
v 0.057022 -0.137664 0.223004
v 0.060534 -0.146143 0.192748
v 0.061720 -0.149006 0.161283
v -0.000000 -0.114044 -0.275328
v -0.000000 -0.134102 -0.250888
v -0.000000 -0.149006 -0.223004
v -0.000000 -0.158184 -0.192748
v -0.000000 -0.161283 -0.161283
v 0.012041 -0.029070 -0.319468
v 0.023619 -0.057022 -0.310290
v 0.000000 -0.031465 0.319467
v -0.000000 -0.061720 0.310290
v -0.000000 -0.089604 0.295385
v -0.000000 -0.114044 0.275328
v -0.000000 -0.134102 0.250887
v -0.000000 -0.149006 0.223004
v -0.000000 -0.158184 0.192748
v -0.000000 -0.161283 0.161283
v 0.034290 -0.082783 -0.295385
v 0.043643 -0.105363 -0.275328
v 0.051319 -0.123894 -0.250888
v 0.057022 -0.137664 -0.223004
v 0.060534 -0.146143 -0.192748
v 0.061720 -0.149006 -0.161283
v 0.022249 -0.022249 -0.319468
v -0.012041 -0.029070 0.319467
v -0.023619 -0.057022 0.310290
v -0.034290 -0.082783 0.295385
v -0.043643 -0.105363 0.275328
v -0.051319 -0.123894 0.250887
v -0.057022 -0.137664 0.223004
v -0.060535 -0.146143 0.192748
v -0.061720 -0.149006 0.161283
v 0.043643 -0.043643 -0.310290
v 0.063360 -0.063360 -0.295386
v 0.080642 -0.080642 -0.275328
v 0.094824 -0.094825 -0.250888
v 0.105363 -0.105363 -0.223004
v 0.111853 -0.111853 -0.192748
v 0.114044 -0.114044 -0.161283
v 0.029070 -0.012041 -0.319468
v -0.022249 -0.022249 0.319467
v -0.043643 -0.043643 0.310290
v -0.063360 -0.063360 0.295385
v -0.080642 -0.080642 0.275328
v -0.094825 -0.094824 0.250887
v -0.105363 -0.105363 0.223004
v -0.111853 -0.111853 0.192748
v -0.114045 -0.114044 0.161283
v 0.057022 -0.023619 -0.310290
v 0.082783 -0.034290 -0.295385
v 0.105363 -0.043643 -0.275328
v 0.123894 -0.051319 -0.250888
v 0.137664 -0.057022 -0.223004
v 0.146143 -0.060535 -0.192748
v 0.149006 -0.061720 -0.161283
v -0.029070 -0.012041 0.319467
v -0.057022 -0.023619 0.310290
v -0.082783 -0.034290 0.295385
v -0.105363 -0.043643 0.275328
v -0.123894 -0.051319 0.250887
v -0.137664 -0.057022 0.223004
v -0.146143 -0.060534 0.192748
v -0.149006 -0.061720 0.161283
v 0.031465 0.000000 -0.319468
v 0.061720 0.000000 -0.310290
v 0.089604 0.000000 -0.295385
v 0.114044 0.000000 -0.275328
v 0.134102 0.000000 -0.250888
v 0.149006 0.000000 -0.223004
v 0.158184 -0.000000 -0.192748
v 0.000000 0.000000 0.322567
v -0.031465 0.000000 0.319467
v -0.061720 0.000000 0.310290
v -0.089604 0.000000 0.295385
v -0.114044 0.000000 0.275328
v -0.134102 0.000000 0.250887
v -0.149006 0.000000 0.223004
v -0.158184 0.000000 0.192748
v -0.161283 0.000000 0.161283
v 0.161283 -0.000000 -0.161283
v 0.029070 0.012041 -0.319468
v 0.057022 0.023619 -0.310290
v 0.082783 0.034290 -0.295385
v 0.105363 0.043643 -0.275328
v 0.123894 0.051319 -0.250888
v 0.137664 0.057022 -0.223004
v -0.029070 0.012041 0.319467
v -0.057022 0.023619 0.310290
v -0.082783 0.034290 0.295385
v -0.105363 0.043643 0.275328
v -0.123894 0.051319 0.250887
v -0.137664 0.057022 0.223004
v -0.146143 0.060535 0.192748
v -0.149006 0.061721 0.161283
v 0.146143 0.060535 -0.192748
v 0.149006 0.061720 -0.161283
v 0.022249 0.022249 -0.319468
v 0.043643 0.043643 -0.310290
v 0.063360 0.063360 -0.295385
v 0.080642 0.080642 -0.275328
v 0.094825 0.094825 -0.250888
v -0.022249 0.022249 0.319467
v -0.043643 0.043643 0.310290
v -0.063360 0.063360 0.295385
v -0.080642 0.080642 0.275328
v -0.094824 0.094825 0.250887
v -0.105363 0.105363 0.223004
v -0.111853 0.111853 0.192748
v -0.114044 0.114045 0.161283
v 0.105363 0.105363 -0.223004
v 0.111853 0.111853 -0.192748
v 0.114044 0.114044 -0.161283
v 0.012041 0.029070 -0.319468
v 0.023619 0.057022 -0.310290
v 0.034290 0.082784 -0.295385
v 0.043643 0.105363 -0.275328
v -0.012041 0.029070 0.319467
v -0.023619 0.057022 0.310290
v -0.034290 0.082784 0.295385
v -0.043643 0.105363 0.275328
v -0.051319 0.123894 0.250887
v -0.057022 0.137664 0.223004
v -0.060534 0.146143 0.192748
v -0.061720 0.149006 0.161283
v 0.051319 0.123894 -0.250888
v 0.057022 0.137664 -0.223004
v 0.060535 0.146143 -0.192748
v 0.061720 0.149006 -0.161283
v 0.000000 0.031465 -0.319468
v 0.000000 0.061720 -0.310290
v 0.000000 0.089604 -0.295385
v 0.000000 0.089604 0.295385
v 0.000000 0.134102 0.250887
v 0.000000 0.161283 0.161283
v 0.000000 0.134102 -0.250888
v 0.000000 0.158184 -0.192748
v -0.094824 0.094825 -0.250888
v -0.080642 0.080642 -0.275328
v -0.063360 0.063360 -0.295385
v -0.043643 0.043643 -0.310290
v -0.022249 0.022249 -0.319468
v -0.061720 0.149006 -0.161283
v -0.060534 0.146143 -0.192748
v -0.057022 0.137664 -0.223004
v -0.051319 0.123894 -0.250888
v -0.043643 0.105363 -0.275328
v -0.034290 0.082784 -0.295385
v -0.023619 0.057022 -0.310290
v -0.012041 0.029070 -0.319468
v 0.000000 0.161283 -0.161283
v 0.000000 0.149006 -0.223004
v 0.000000 0.114044 -0.275328
vn -0.0000 0.2068 0.9784
vn -0.0000 0.3930 0.9195
vn -0.0000 0.7131 0.7011
vn -0.0000 0.9256 0.3784
vn -0.0000 0.9812 0.1928
vn -0.6545 0.6545 -0.3784
vn -0.6938 0.6938 -0.1928
vn -0.7063 0.7063 -0.0488
vn -0.1911 0.0791 -0.9784
vn -0.3631 0.1504 -0.9195
vn 0.0791 0.1911 0.9784
vn 0.1504 0.3631 0.9195
vn 0.2158 0.5210 0.8258
vn 0.2729 0.6588 0.7011
vn 0.3196 0.7716 0.5500
vn 0.3542 0.8552 0.3784
vn 0.3755 0.9065 0.1928
vn 0.3822 0.9228 0.0488
vn -0.5210 0.2158 -0.8258
vn -0.6588 0.2729 -0.7011
vn -0.7716 0.3196 -0.5500
vn -0.8552 0.3542 -0.3784
vn -0.9065 0.3755 -0.1928
vn -0.9228 0.3822 -0.0488
vn -0.2068 -0.0000 -0.9784
vn 0.1462 0.1462 0.9784
vn 0.2779 0.2779 0.9195
vn 0.3987 0.3987 0.8258
vn 0.5042 0.5042 0.7011
vn 0.5905 0.5905 0.5500
vn 0.6545 0.6545 0.3784
vn 0.6938 0.6938 0.1928
vn 0.7063 0.7063 0.0488
vn -0.3930 -0.0000 -0.9195
vn -0.5639 -0.0000 -0.8258
vn -0.7131 -0.0000 -0.7011
vn -0.8352 -0.0000 -0.5500
vn -0.9256 -0.0000 -0.3784
vn -0.9812 -0.0000 -0.1928
vn -0.9988 -0.0000 -0.0488
vn 0.1911 0.0791 0.9784
vn 0.3631 0.1504 0.9195
vn 0.5210 0.2158 0.8258
vn 0.6588 0.2729 0.7011
vn 0.7716 0.3196 0.5500
vn 0.8552 0.3542 0.3784
vn 0.9065 0.3755 0.1928
vn 0.9228 0.3822 0.0488
vn -0.1911 -0.0791 -0.9784
vn -0.3631 -0.1504 -0.9195
vn -0.5210 -0.2158 -0.8258
vn -0.6588 -0.2729 -0.7011
vn -0.7716 -0.3196 -0.5500
vn -0.8552 -0.3542 -0.3784
vn -0.9065 -0.3755 -0.1928
vn 0.2068 -0.0000 0.9784
vn 0.3930 -0.0000 0.9195
vn 0.5639 -0.0000 0.8258
vn 0.7131 -0.0000 0.7011
vn 0.8352 -0.0000 0.5500
vn 0.9256 -0.0000 0.3784
vn 0.9812 -0.0000 0.1928
vn 0.9988 -0.0000 0.0488
vn -0.9228 -0.3822 -0.0488
vn -0.1462 -0.1462 -0.9784
vn -0.2779 -0.2779 -0.9195
vn -0.3987 -0.3987 -0.8258
vn -0.5042 -0.5042 -0.7011
vn -0.5905 -0.5905 -0.5500
vn -0.6545 -0.6545 -0.3784
vn 0.1911 -0.0791 0.9784
vn 0.3631 -0.1504 0.9195
vn 0.5210 -0.2158 0.8258
vn 0.6588 -0.2729 0.7011
vn 0.7716 -0.3196 0.5500
vn 0.8552 -0.3542 0.3784
vn 0.9065 -0.3755 0.1928
vn 0.9228 -0.3822 0.0488
vn -0.6938 -0.6938 -0.1928
vn -0.7063 -0.7063 -0.0488
vn -0.0000 -0.0000 -1.0000
vn -0.0791 -0.1911 -0.9784
vn -0.1504 -0.3631 -0.9195
vn -0.2158 -0.5210 -0.8258
vn -0.2729 -0.6588 -0.7011
vn 0.1462 -0.1462 0.9784
vn 0.2779 -0.2779 0.9195
vn 0.3987 -0.3987 0.8258
vn 0.5042 -0.5042 0.7011
vn 0.5905 -0.5905 0.5500
vn 0.6545 -0.6545 0.3784
vn 0.6938 -0.6938 0.1928
vn 0.7063 -0.7063 0.0488
vn -0.3196 -0.7716 -0.5500
vn -0.3542 -0.8552 -0.3784
vn -0.3755 -0.9065 -0.1928
vn -0.3822 -0.9228 -0.0488
vn -0.0000 -0.2068 -0.9784
vn -0.0000 -0.3930 -0.9195
vn -0.0000 -0.5639 -0.8258
vn 0.0791 -0.1911 0.9784
vn 0.1504 -0.3631 0.9195
vn 0.2158 -0.5210 0.8258
vn 0.2729 -0.6588 0.7011
vn 0.3196 -0.7716 0.5500
vn 0.3542 -0.8552 0.3784
vn 0.3755 -0.9065 0.1928
vn 0.3822 -0.9228 0.0488
vn -0.0000 -0.7131 -0.7011
vn -0.0000 -0.8352 -0.5500
vn -0.0000 -0.9256 -0.3784
vn -0.0000 -0.9812 -0.1928
vn -0.0000 -0.9988 -0.0488
vn 0.0791 -0.1911 -0.9784
vn 0.1504 -0.3631 -0.9195
vn -0.0000 -0.2068 0.9784
vn -0.0000 -0.3930 0.9195
vn -0.0000 -0.5639 0.8258
vn -0.0000 -0.7131 0.7011
vn -0.0000 -0.8352 0.5500
vn -0.0000 -0.9256 0.3784
vn -0.0000 -0.9812 0.1928
vn -0.0000 -0.9988 0.0488
vn 0.2158 -0.5210 -0.8258
vn 0.2729 -0.6588 -0.7011
vn 0.3196 -0.7716 -0.5500
vn 0.3542 -0.8552 -0.3784
vn 0.3755 -0.9065 -0.1928
vn 0.3822 -0.9228 -0.0488
vn 0.1462 -0.1462 -0.9784
vn -0.0791 -0.1911 0.9784
vn -0.1504 -0.3631 0.9195
vn -0.2158 -0.5210 0.8258
vn -0.2729 -0.6588 0.7011
vn -0.3196 -0.7716 0.5500
vn -0.3542 -0.8552 0.3784
vn -0.3755 -0.9065 0.1928
vn -0.3822 -0.9228 0.0488
vn 0.2779 -0.2779 -0.9195
vn 0.3987 -0.3987 -0.8258
vn 0.5042 -0.5042 -0.7011
vn 0.5905 -0.5905 -0.5500
vn 0.6545 -0.6545 -0.3784
vn 0.6938 -0.6938 -0.1928
vn 0.7063 -0.7063 -0.0488
vn 0.1911 -0.0791 -0.9784
vn -0.1462 -0.1462 0.9784
vn -0.2779 -0.2779 0.9195
vn -0.3987 -0.3987 0.8258
vn -0.5042 -0.5042 0.7011
vn -0.5905 -0.5905 0.5500
vn -0.6545 -0.6545 0.3784
vn -0.6938 -0.6938 0.1928
vn -0.7063 -0.7063 0.0488
vn 0.3631 -0.1504 -0.9195
vn 0.5210 -0.2158 -0.8258
vn 0.6588 -0.2729 -0.7011
vn 0.7716 -0.3196 -0.5500
vn 0.8552 -0.3542 -0.3784
vn 0.9065 -0.3755 -0.1928
vn 0.9228 -0.3822 -0.0488
vn -0.1911 -0.0791 0.9784
vn -0.3631 -0.1504 0.9195
vn -0.5210 -0.2158 0.8258
vn -0.6588 -0.2729 0.7011
vn -0.7716 -0.3196 0.5500
vn -0.8552 -0.3542 0.3784
vn -0.9065 -0.3755 0.1928
vn -0.9228 -0.3822 0.0488
vn 0.2068 -0.0000 -0.9784
vn 0.3930 -0.0000 -0.9195
vn 0.5639 -0.0000 -0.8258
vn 0.7131 -0.0000 -0.7011
vn 0.8352 -0.0000 -0.5500
vn 0.9256 -0.0000 -0.3784
vn 0.9812 -0.0000 -0.1928
vn -0.0000 -0.0000 1.0000
vn -0.2068 -0.0000 0.9784
vn -0.3930 -0.0000 0.9195
vn -0.5639 -0.0000 0.8258
vn -0.7131 -0.0000 0.7011
vn -0.8352 -0.0000 0.5500
vn -0.9256 -0.0000 0.3784
vn -0.9812 -0.0000 0.1928
vn -0.9988 -0.0000 0.0488
vn 0.9988 -0.0000 -0.0488
vn 0.1911 0.0791 -0.9784
vn 0.3631 0.1504 -0.9195
vn 0.5210 0.2158 -0.8258
vn 0.6588 0.2729 -0.7011
vn 0.7716 0.3196 -0.5500
vn 0.8552 0.3542 -0.3784
vn -0.1911 0.0791 0.9784
vn -0.3631 0.1504 0.9195
vn -0.5210 0.2158 0.8258
vn -0.6588 0.2729 0.7011
vn -0.7716 0.3196 0.5500
vn -0.8552 0.3542 0.3784
vn -0.9065 0.3755 0.1928
vn -0.9228 0.3822 0.0488
vn 0.9065 0.3755 -0.1928
vn 0.9228 0.3822 -0.0488
vn 0.1462 0.1462 -0.9784
vn 0.2779 0.2779 -0.9195
vn 0.3987 0.3987 -0.8258
vn 0.5042 0.5042 -0.7011
vn 0.5905 0.5905 -0.5500
vn -0.1462 0.1462 0.9784
vn -0.2779 0.2779 0.9195
vn -0.3987 0.3987 0.8258
vn -0.5042 0.5042 0.7011
vn -0.5905 0.5905 0.5500
vn -0.6545 0.6545 0.3784
vn -0.6938 0.6938 0.1928
vn -0.7063 0.7063 0.0488
vn 0.6545 0.6545 -0.3784
vn 0.6938 0.6938 -0.1928
vn 0.7063 0.7063 -0.0488
vn 0.0791 0.1911 -0.9784
vn 0.1504 0.3631 -0.9195
vn 0.2158 0.5210 -0.8258
vn 0.2729 0.6588 -0.7011
vn -0.0791 0.1911 0.9784
vn -0.1504 0.3631 0.9195
vn -0.2158 0.5210 0.8258
vn -0.2729 0.6588 0.7011
vn -0.3196 0.7716 0.5500
vn -0.3542 0.8552 0.3784
vn -0.3755 0.9065 0.1928
vn -0.3822 0.9228 0.0488
vn 0.3196 0.7716 -0.5500
vn 0.3542 0.8552 -0.3784
vn 0.3755 0.9065 -0.1928
vn 0.3822 0.9228 -0.0488
vn -0.0000 0.2068 -0.9784
vn -0.0000 0.3930 -0.9195
vn -0.0000 0.5639 -0.8258
vn -0.0000 0.5639 0.8258
vn -0.0000 0.8352 0.5500
vn -0.0000 0.9988 0.0488
vn -0.0000 0.8352 -0.5500
vn -0.0000 0.9812 -0.1928
vn -0.5905 0.5905 -0.5500
vn -0.5042 0.5042 -0.7011
vn -0.3987 0.3987 -0.8258
vn -0.2779 0.2779 -0.9195
vn -0.1462 0.1462 -0.9784
vn -0.3822 0.9228 -0.0488
vn -0.3755 0.9065 -0.1928
vn -0.3542 0.8552 -0.3784
vn -0.3196 0.7716 -0.5500
vn -0.2729 0.6588 -0.7011
vn -0.2158 0.5210 -0.8258
vn -0.1504 0.3631 -0.9195
vn -0.0791 0.1911 -0.9784
vn -0.0000 0.9988 -0.0488
vn -0.0000 0.9256 -0.3784
vn -0.0000 0.7131 -0.7011
vt 0.750000 0.812500
vt 0.750000 0.875000
vt 0.687500 0.875000
vt 0.687500 0.812500
vt 0.812500 0.187500
vt 0.812500 0.250000
vt 0.750000 0.250000
vt 0.750000 0.187500
vt 0.750000 0.750000
vt 0.687500 0.750000
vt 0.812500 0.312500
vt 0.750000 0.312500
vt 0.750000 0.687500
vt 0.687500 0.687500
vt 0.812500 0.375000
vt 0.750000 0.375000
vt 0.750000 0.625000
vt 0.687500 0.625000
vt 0.812500 0.437500
vt 0.750000 0.437500
vt 0.750000 0.562500
vt 0.687500 0.562500
vt 0.812500 0.500000
vt 0.750000 0.500000
vt 0.687500 0.500000
vt 0.750000 0.937500
vt 0.718750 1.000000
vt 0.687500 0.937500
vt 0.781250 0.000000
vt 0.812500 0.062500
vt 0.750000 0.062500
vt 0.812500 0.125000
vt 0.750000 0.125000
vt 0.875000 0.437500
vt 0.875000 0.500000
vt 0.625000 0.937500
vt 0.625000 0.875000
vt 0.843750 0.000000
vt 0.875000 0.062500
vt 0.625000 0.812500
vt 0.875000 0.125000
vt 0.625000 0.750000
vt 0.875000 0.187500
vt 0.625000 0.687500
vt 0.875000 0.250000
vt 0.625000 0.625000
vt 0.875000 0.312500
vt 0.625000 0.562500
vt 0.875000 0.375000
vt 0.625000 0.500000
vt 0.656250 1.000000
vt 0.937500 0.250000
vt 0.937500 0.312500
vt 0.562500 0.687500
vt 0.562500 0.625000
vt 0.937500 0.375000
vt 0.562500 0.562500
vt 0.937500 0.437500
vt 0.562500 0.500000
vt 0.593750 1.000000
vt 0.562500 0.937500
vt 0.937500 0.500000
vt 0.906250 0.000000
vt 0.937500 0.062500
vt 0.562500 0.875000
vt 0.937500 0.125000
vt 0.562500 0.812500
vt 0.937500 0.187500
vt 0.562500 0.750000
vt 1.000000 0.062500
vt 1.000000 0.125000
vt 0.500000 0.875000
vt 0.500000 0.812500
vt 1.000000 0.187500
vt 0.500000 0.750000
vt 1.000000 0.250000
vt 0.500000 0.687500
vt 1.000000 0.312500
vt 0.500000 0.625000
vt 1.000000 0.375000
vt 0.500000 0.562500
vt 1.000000 0.437500
vt 0.500000 0.500000
vt 0.531250 1.000000
vt 0.500000 0.937500
vt 1.000000 0.500000
vt 0.968750 0.000000
vt 0.062500 0.312500
vt 0.062500 0.375000
vt 0.000000 0.375000
vt 0.000000 0.312500
vt 0.437500 0.625000
vt 0.437500 0.562500
vt 0.062500 0.437500
vt 0.000000 0.437500
vt 0.437500 0.500000
vt 0.468750 1.000000
vt 0.437500 0.937500
vt 0.062500 0.500000
vt 0.000000 0.500000
vt 0.031250 0.000000
vt 0.062500 0.062500
vt 0.000000 0.062500
vt 0.437500 0.875000
vt 0.062500 0.125000
vt 0.000000 0.125000
vt 0.437500 0.812500
vt 0.062500 0.187500
vt 0.000000 0.187500
vt 0.437500 0.750000
vt 0.062500 0.250000
vt 0.000000 0.250000
vt 0.437500 0.687500
vt 0.375000 0.875000
vt 0.375000 0.812500
vt 0.125000 0.062500
vt 0.125000 0.125000
vt 0.375000 0.750000
vt 0.125000 0.187500
vt 0.375000 0.687500
vt 0.125000 0.250000
vt 0.375000 0.625000
vt 0.125000 0.312500
vt 0.375000 0.562500
vt 0.125000 0.375000
vt 0.375000 0.500000
vt 0.406250 1.000000
vt 0.375000 0.937500
vt 0.125000 0.437500
vt 0.125000 0.500000
vt 0.093750 0.000000
vt 0.312500 0.625000
vt 0.312500 0.562500
vt 0.187500 0.312500
vt 0.187500 0.375000
vt 0.312500 0.500000
vt 0.343750 1.000000
vt 0.312500 0.937500
vt 0.187500 0.437500
vt 0.187500 0.500000
vt 0.312500 0.875000
vt 0.156250 0.000000
vt 0.187500 0.062500
vt 0.312500 0.812500
vt 0.187500 0.125000
vt 0.312500 0.750000
vt 0.187500 0.187500
vt 0.312500 0.687500
vt 0.187500 0.250000
vt 0.250000 0.125000
vt 0.250000 0.187500
vt 0.250000 0.812500
vt 0.250000 0.750000
vt 0.250000 0.250000
vt 0.250000 0.687500
vt 0.250000 0.312500
vt 0.250000 0.625000
vt 0.250000 0.375000
vt 0.250000 0.562500
vt 0.250000 0.437500
vt 0.250000 0.500000
vt 0.281250 1.000000
vt 0.250000 0.937500
vt 0.218750 0.000000
vt 0.250000 0.062500
vt 0.250000 0.875000
vt 0.312500 0.375000
vt 0.312500 0.437500
vt 0.187500 0.562500
vt 0.218750 1.000000
vt 0.187500 0.937500
vt 0.281250 0.000000
vt 0.312500 0.062500
vt 0.187500 0.875000
vt 0.312500 0.125000
vt 0.187500 0.812500
vt 0.312500 0.187500
vt 0.187500 0.750000
vt 0.312500 0.250000
vt 0.187500 0.687500
vt 0.312500 0.312500
vt 0.187500 0.625000
vt 0.125000 0.812500
vt 0.125000 0.750000
vt 0.375000 0.125000
vt 0.375000 0.187500
vt 0.125000 0.687500
vt 0.375000 0.250000
vt 0.125000 0.625000
vt 0.375000 0.312500
vt 0.125000 0.562500
vt 0.375000 0.375000
vt 0.156250 1.000000
vt 0.125000 0.937500
vt 0.375000 0.437500
vt 0.125000 0.875000
vt 0.343750 0.000000
vt 0.375000 0.062500
vt 0.062500 0.562500
vt 0.093750 1.000000
vt 0.062500 0.937500
vt 0.437500 0.375000
vt 0.437500 0.437500
vt 0.062500 0.875000
vt 0.406250 0.000000
vt 0.437500 0.062500
vt 0.062500 0.812500
vt 0.437500 0.125000
vt 0.062500 0.750000
vt 0.437500 0.187500
vt 0.062500 0.687500
vt 0.437500 0.250000
vt 0.062500 0.625000
vt 0.437500 0.312500
vt 0.500000 0.187500
vt 0.500000 0.250000
vt 0.000000 0.750000
vt 0.000000 0.687500
vt 0.500000 0.312500
vt 0.000000 0.625000
vt 0.500000 0.375000
vt 0.000000 0.562500
vt 0.500000 0.437500
vt 0.031250 1.000000
vt 0.000000 0.937500
vt 0.468750 0.000000
vt 0.500000 0.062500
vt 0.000000 0.875000
vt 0.500000 0.125000
vt 0.000000 0.812500
vt 0.562500 0.437500
vt 0.531250 0.000000
vt 0.562500 0.062500
vt 1.000000 0.875000
vt 1.000000 0.937500
vt 0.937500 0.937500
vt 0.937500 0.875000
vt 0.562500 0.125000
vt 1.000000 0.812500
vt 0.937500 0.812500
vt 0.562500 0.187500
vt 1.000000 0.750000
vt 0.937500 0.750000
vt 0.562500 0.250000
vt 1.000000 0.687500
vt 0.937500 0.687500
vt 0.562500 0.312500
vt 1.000000 0.625000
vt 0.937500 0.625000
vt 0.562500 0.375000
vt 1.000000 0.562500
vt 0.937500 0.562500
vt 0.968750 1.000000
vt 0.625000 0.250000
vt 0.625000 0.312500
vt 0.875000 0.687500
vt 0.875000 0.625000
vt 0.625000 0.375000
vt 0.875000 0.562500
vt 0.625000 0.437500
vt 0.906250 1.000000
vt 0.875000 0.937500
vt 0.593750 0.000000
vt 0.625000 0.062500
vt 0.875000 0.875000
vt 0.625000 0.125000
vt 0.875000 0.812500
vt 0.625000 0.187500
vt 0.875000 0.750000
vt 0.812500 0.937500
vt 0.812500 0.875000
vt 0.656250 0.000000
vt 0.687500 0.062500
vt 0.812500 0.812500
vt 0.687500 0.125000
vt 0.812500 0.750000
vt 0.687500 0.187500
vt 0.812500 0.687500
vt 0.687500 0.250000
vt 0.812500 0.625000
vt 0.687500 0.312500
vt 0.812500 0.562500
vt 0.687500 0.375000
vt 0.843750 1.000000
vt 0.687500 0.437500
vt 0.781250 1.000000
vt 0.718750 0.000000
vt 0.000000 0.000000
s 1
f 238/1/238 2/2/2 12/3/12 13/4/13
f 253/5/253 252/6/252 258/7/258 237/8/237
f 3/9/3 238/1/238 13/4/13 14/10/14
f 252/6/252 251/11/251 241/12/241 258/7/258
f 239/13/239 3/9/3 14/10/14 15/14/15
f 251/11/251 250/15/250 257/16/257 241/12/241
f 4/17/4 239/13/239 15/14/15 16/18/16
f 250/15/250 249/19/249 242/20/242 257/16/257
f 5/21/5 4/17/4 16/18/16 17/22/17
f 249/19/249 248/23/248 256/24/256 242/20/242
f 240/24/240 5/21/5 17/22/17 18/25/18
f 1/26/1 177/27/177 11/28/11
f 81/29/81 255/30/255 235/31/235
f 255/30/255 254/32/254 236/33/236 235/31/235
f 2/2/2 1/26/1 11/28/11 12/3/12
f 254/32/254 253/5/253 237/8/237 236/33/236
f 7/34/7 8/35/8 248/23/248 249/19/249
f 12/3/12 11/28/11 26/36/26 27/37/27
f 81/38/81 247/39/247 255/30/255
f 13/4/13 12/3/12 27/37/27 28/40/28
f 247/39/247 246/41/246 254/32/254 255/30/255
f 14/10/14 13/4/13 28/40/28 29/42/29
f 246/41/246 245/43/245 253/5/253 254/32/254
f 15/14/15 14/10/14 29/42/29 30/44/30
f 245/43/245 244/45/244 252/6/252 253/5/253
f 16/18/16 15/14/15 30/44/30 31/46/31
f 244/45/244 243/47/243 251/11/251 252/6/252
f 17/22/17 16/18/16 31/46/31 32/48/32
f 243/47/243 6/49/6 250/15/250 251/11/251
f 18/25/18 17/22/17 32/48/32 33/50/33
f 11/28/11 177/51/177 26/36/26
f 6/49/6 7/34/7 249/19/249 250/15/250
f 20/52/20 21/53/21 243/47/243 244/45/244
f 31/46/31 30/44/30 45/54/45 46/55/46
f 21/53/21 22/56/22 6/49/6 243/47/243
f 32/48/32 31/46/31 46/55/46 47/57/47
f 22/56/22 23/58/23 7/34/7 6/49/6
f 33/50/33 32/48/32 47/57/47 48/59/48
f 26/36/26 177/60/177 41/61/41
f 23/58/23 24/62/24 8/35/8 7/34/7
f 81/63/81 9/64/9 247/39/247
f 27/37/27 26/36/26 41/61/41 42/65/42
f 9/64/9 10/66/10 246/41/246 247/39/247
f 28/40/28 27/37/27 42/65/42 43/67/43
f 10/66/10 19/68/19 245/43/245 246/41/246
f 29/42/29 28/40/28 43/67/43 44/69/44
f 19/68/19 20/52/20 244/45/244 245/43/245
f 30/44/30 29/42/29 44/69/44 45/54/45
f 25/70/25 34/71/34 10/66/10 9/64/9
f 43/67/43 42/65/42 57/72/57 58/73/58
f 34/71/34 35/74/35 19/68/19 10/66/10
f 44/69/44 43/67/43 58/73/58 59/75/59
f 35/74/35 36/76/36 20/52/20 19/68/19
f 45/54/45 44/69/44 59/75/59 60/77/60
f 36/76/36 37/78/37 21/53/21 20/52/20
f 46/55/46 45/54/45 60/77/60 61/79/61
f 37/78/37 38/80/38 22/56/22 21/53/21
f 47/57/47 46/55/46 61/79/61 62/81/62
f 38/80/38 39/82/39 23/58/23 22/56/22
f 48/59/48 47/57/47 62/81/62 63/83/63
f 41/61/41 177/84/177 56/85/56
f 39/82/39 40/86/40 24/62/24 23/58/23
f 81/87/81 25/70/25 9/64/9
f 42/65/42 41/61/41 56/85/56 57/72/57
f 53/88/53 54/89/54 38/90/38 37/91/37
f 62/81/62 61/79/61 76/92/76 77/93/77
f 54/89/54 55/94/55 39/95/39 38/90/38
f 63/83/63 62/81/62 77/93/77 78/96/78
f 56/85/56 177/97/177 71/98/71
f 55/94/55 64/99/64 40/100/40 39/95/39
f 81/101/81 49/102/49 25/103/25
f 57/72/57 56/85/56 71/98/71 72/104/72
f 49/102/49 50/105/50 34/106/34 25/103/25
f 58/73/58 57/72/57 72/104/72 73/107/73
f 50/105/50 51/108/51 35/109/35 34/106/34
f 59/75/59 58/73/58 73/107/73 74/110/74
f 51/108/51 52/111/52 36/112/36 35/109/35
f 60/77/60 59/75/59 74/110/74 75/113/75
f 52/111/52 53/88/53 37/91/37 36/112/36
f 61/79/61 60/77/60 75/113/75 76/92/76
f 73/107/73 72/104/72 87/114/87 88/115/88
f 65/116/65 66/117/66 50/105/50 49/102/49
f 74/110/74 73/107/73 88/115/88 89/118/89
f 66/117/66 67/119/67 51/108/51 50/105/50
f 75/113/75 74/110/74 89/118/89 90/120/90
f 67/119/67 68/121/68 52/111/52 51/108/51
f 76/92/76 75/113/75 90/120/90 91/122/91
f 68/121/68 69/123/69 53/88/53 52/111/52
f 77/93/77 76/92/76 91/122/91 92/124/92
f 69/123/69 70/125/70 54/89/54 53/88/53
f 78/96/78 77/93/77 92/124/92 93/126/93
f 71/98/71 177/127/177 86/128/86
f 70/125/70 79/129/79 55/94/55 54/89/54
f 79/129/79 80/130/80 64/99/64 55/94/55
f 72/104/72 71/98/71 86/128/86 87/114/87
f 81/131/81 65/116/65 49/102/49
f 92/124/92 91/122/91 106/132/106 107/133/107
f 94/134/94 95/135/95 70/125/70 69/123/69
f 93/126/93 92/124/92 107/133/107 108/136/108
f 86/128/86 177/137/177 101/138/101
f 95/135/95 96/139/96 79/129/79 70/125/70
f 96/139/96 97/140/97 80/130/80 79/129/79
f 87/114/87 86/128/86 101/138/101 102/141/102
f 81/142/81 82/143/82 65/116/65
f 88/115/88 87/114/87 102/141/102 103/144/103
f 82/143/82 83/145/83 66/117/66 65/116/65
f 89/118/89 88/115/88 103/144/103 104/146/104
f 83/145/83 84/147/84 67/119/67 66/117/66
f 90/120/90 89/118/89 104/146/104 105/148/105
f 84/147/84 85/149/85 68/121/68 67/119/67
f 91/122/91 90/120/90 105/148/105 106/132/106
f 85/149/85 94/134/94 69/123/69 68/121/68
f 99/150/99 100/151/100 84/147/84 83/145/83
f 104/146/104 103/144/103 118/152/118 119/153/119
f 100/151/100 109/154/109 85/149/85 84/147/84
f 105/148/105 104/146/104 119/153/119 120/155/120
f 109/154/109 110/156/110 94/134/94 85/149/85
f 106/132/106 105/148/105 120/155/120 121/157/121
f 110/156/110 111/158/111 95/135/95 94/134/94
f 107/133/107 106/132/106 121/157/121 122/159/122
f 111/158/111 112/160/112 96/139/96 95/135/95
f 108/136/108 107/133/107 122/159/122 123/161/123
f 101/138/101 177/162/177 116/163/116
f 112/160/112 113/161/113 97/140/97 96/139/96
f 81/164/81 98/165/98 82/143/82
f 102/141/102 101/138/101 116/163/116 117/166/117
f 98/165/98 99/150/99 83/145/83 82/143/82
f 103/144/103 102/141/102 117/166/117 118/152/118
f 127/167/127 128/168/128 112/160/112 111/158/111
f 123/161/123 122/159/122 137/169/137 138/140/138
f 116/163/116 177/170/177 131/171/131
f 128/168/128 129/136/129 113/161/113 112/160/112
f 81/172/81 114/173/114 98/165/98
f 117/166/117 116/163/116 131/171/131 132/174/132
f 114/173/114 115/175/115 99/150/99 98/165/98
f 118/152/118 117/166/117 132/174/132 133/176/133
f 115/175/115 124/177/124 100/151/100 99/150/99
f 119/153/119 118/152/118 133/176/133 134/178/134
f 124/177/124 125/179/125 109/154/109 100/151/100
f 120/155/120 119/153/119 134/178/134 135/180/135
f 125/179/125 126/181/126 110/156/110 109/154/109
f 121/157/121 120/155/120 135/180/135 136/182/136
f 126/181/126 127/167/127 111/158/111 110/156/110
f 122/159/122 121/157/121 136/182/136 137/169/137
f 134/178/134 133/176/133 149/183/149 150/184/150
f 139/185/139 140/186/140 124/177/124 115/175/115
f 135/180/135 134/178/134 150/184/150 151/187/151
f 140/186/140 141/188/141 125/179/125 124/177/124
f 136/182/136 135/180/135 151/187/151 152/189/152
f 141/188/141 142/190/142 126/181/126 125/179/125
f 137/169/137 136/182/136 152/189/152 153/191/153
f 142/190/142 143/192/143 127/167/127 126/181/126
f 138/140/138 137/169/137 153/191/153 154/130/154
f 131/171/131 177/193/177 147/194/147
f 143/192/143 144/195/144 128/168/128 127/167/127
f 144/195/144 145/126/145 129/136/129 128/168/128
f 132/174/132 131/171/131 147/194/147 148/196/148
f 81/197/81 130/198/130 114/173/114
f 133/176/133 132/174/132 148/196/148 149/183/149
f 130/198/130 139/185/139 115/175/115 114/173/114
f 154/130/154 153/191/153 168/199/168 169/99/169
f 147/194/147 177/200/177 162/201/162
f 159/202/159 160/203/160 144/195/144 143/192/143
f 160/203/160 161/96/161 145/126/145 144/195/144
f 148/196/148 147/194/147 162/201/162 163/204/163
f 81/205/81 146/206/146 130/198/130
f 149/183/149 148/196/148 163/204/163 164/207/164
f 146/206/146 155/208/155 139/185/139 130/198/130
f 150/184/150 149/183/149 164/207/164 165/209/165
f 155/208/155 156/210/156 140/186/140 139/185/139
f 151/187/151 150/184/150 165/209/165 166/211/166
f 156/210/156 157/212/157 141/188/141 140/186/140
f 152/189/152 151/187/151 166/211/166 167/213/167
f 157/212/157 158/214/158 142/190/142 141/188/141
f 153/191/153 152/189/152 167/213/167 168/199/168
f 158/214/158 159/202/159 143/192/143 142/190/142
f 172/215/172 173/216/173 157/212/157 156/210/156
f 166/211/166 165/209/165 181/217/181 182/218/182
f 173/216/173 174/219/174 158/214/158 157/212/157
f 167/213/167 166/211/166 182/218/182 183/220/183
f 174/219/174 175/221/175 159/202/159 158/214/158
f 168/199/168 167/213/167 183/220/183 184/222/184
f 175/221/175 176/223/176 160/203/160 159/202/159
f 169/99/169 168/199/168 184/222/184 185/100/185
f 162/201/162 177/224/177 178/225/178
f 176/223/176 186/83/186 161/96/161 160/203/160
f 81/226/81 170/227/170 146/206/146
f 163/204/163 162/201/162 178/225/178 179/228/179
f 170/227/170 171/229/171 155/208/155 146/206/146
f 164/207/164 163/204/163 179/228/179 180/230/180
f 171/229/171 172/215/172 156/210/156 155/208/155
f 165/209/165 164/207/164 180/230/180 181/217/181
f 201/231/201 202/59/202 186/83/186 176/223/176
f 81/232/81 187/233/187 170/227/170
f 179/234/179 178/235/178 193/236/193 194/237/194
f 187/233/187 188/238/188 171/229/171 170/227/170
f 180/239/180 179/234/179 194/237/194 195/240/195
f 188/238/188 189/241/189 172/215/172 171/229/171
f 181/242/181 180/239/180 195/240/195 196/243/196
f 189/241/189 190/244/190 173/216/173 172/215/172
f 182/245/182 181/242/181 196/243/196 197/246/197
f 190/244/190 191/247/191 174/219/174 173/216/173
f 183/248/183 182/245/182 197/246/197 198/249/198
f 191/247/191 192/250/192 175/221/175 174/219/174
f 184/251/184 183/248/183 198/249/198 199/252/199
f 192/250/192 201/231/201 176/223/176 175/221/175
f 185/86/185 184/251/184 199/252/199 200/62/200
f 178/235/178 177/253/177 193/236/193
f 206/254/206 207/255/207 191/247/191 190/244/190
f 198/249/198 197/246/197 212/256/212 213/257/213
f 207/255/207 216/258/216 192/250/192 191/247/191
f 199/252/199 198/249/198 213/257/213 214/259/214
f 216/258/216 217/260/217 201/231/201 192/250/192
f 200/62/200 199/252/199 214/259/214 215/35/215
f 193/236/193 177/261/177 208/262/208
f 217/260/217 218/50/218 202/59/202 201/231/201
f 81/263/81 203/264/203 187/233/187
f 194/237/194 193/236/193 208/262/208 209/265/209
f 203/264/203 204/266/204 188/238/188 187/233/187
f 195/240/195 194/237/194 209/265/209 210/267/210
f 204/266/204 205/268/205 189/241/189 188/238/188
f 196/243/196 195/240/195 210/267/210 211/269/211
f 205/268/205 206/254/206 190/244/190 189/241/189
f 197/246/197 196/243/196 211/269/211 212/256/212
f 209/265/209 208/262/208 223/270/223 224/271/224
f 81/272/81 219/273/219 203/264/203
f 210/267/210 209/265/209 224/271/224 225/274/225
f 219/273/219 220/275/220 204/266/204 203/264/203
f 211/269/211 210/267/210 225/274/225 226/276/226
f 220/275/220 221/277/221 205/268/205 204/266/204
f 212/256/212 211/269/211 226/276/226 227/278/227
f 221/277/221 222/279/222 206/254/206 205/268/205
f 213/257/213 212/256/212 227/278/227 228/280/228
f 222/279/222 231/281/231 207/255/207 206/254/206
f 214/259/214 213/257/213 228/280/228 229/282/229
f 231/281/231 232/283/232 216/258/216 207/255/207
f 215/35/215 214/259/214 229/282/229 230/23/230
f 208/262/208 177/284/177 223/270/223
f 232/283/232 233/285/233 217/260/217 216/258/216
f 233/285/233 234/25/234 218/50/218 217/260/217
f 228/280/228 227/278/227 239/13/239 4/17/4
f 257/16/257 242/20/242 233/285/233 232/283/232
f 229/282/229 228/280/228 4/17/4 5/21/5
f 242/20/242 256/24/256 234/25/234 233/285/233
f 230/23/230 229/282/229 5/21/5 240/24/240
f 223/270/223 177/286/177 1/26/1
f 81/287/81 235/31/235 219/273/219
f 235/31/235 236/33/236 220/275/220 219/273/219
f 224/271/224 223/270/223 1/26/1 2/2/2
f 236/33/236 237/8/237 221/277/221 220/275/220
f 225/274/225 224/271/224 2/2/2 238/1/238
f 237/8/237 258/7/258 222/279/222 221/277/221
f 226/276/226 225/274/225 238/1/238 3/9/3
f 258/7/258 241/12/241 231/281/231 222/279/222
f 227/278/227 226/276/226 3/9/3 239/13/239
f 241/12/241 257/16/257 232/283/232 231/281/231
f 33/50/33 48/59/48 202/59/202 218/50/218
f 18/288/18 33/288/33 218/288/218 234/288/234
f 240/288/240 18/288/18 234/288/234 256/288/256
f 230/288/230 240/288/240 256/288/256 248/288/248
f 215/288/215 230/288/230 248/288/248 8/288/8
f 200/288/200 215/288/215 8/288/8 24/288/24
f 185/288/185 200/288/200 24/288/24 40/288/40
f 169/288/169 185/288/185 40/288/40 64/288/64
f 154/288/154 169/288/169 64/288/64 80/288/80
f 138/288/138 154/288/154 80/288/80 97/288/97
f 123/288/123 138/288/138 97/288/97 113/288/113
f 108/288/108 123/288/123 113/288/113 129/288/129
f 93/288/93 108/288/108 129/288/129 145/288/145
f 78/288/78 93/288/93 145/288/145 161/288/161
f 63/288/63 78/288/78 161/288/161 186/288/186
f 48/288/48 63/288/63 186/288/186 202/288/202
